<?xml version="1.0"?>
<svg version="1.1" xmlns="http://www.w3.org/2000/svg" width="400px" height="200px" style="border: dashed 2px #aaa"><path fill="#ff9100" d="M65.99560546875,107.62255859375q0-0.3271484375,0.507080078125-0.55615234375t1.21044921875-0.3271484375t1.34130859375-0.16357421875t0.965087890625-0.0654296875q0.130859375-0.88330078125,0.376220703125-2.38818359375t0.605224609375-3.222412109375t0.899658203125-3.451416015625t1.30859375-3.140625t1.815673828125-2.306396484375t2.45361328125-0.899658203125l-0.0654296875,0q0.4580078125-0.0654296875,0.899658203125-0.09814453125t0.899658203125-0.03271484375q1.07958984375,0,2.339111328125,0.42529296875t2.339111328125,1.194091796875t1.815673828125,1.848388671875t0.736083984375,2.2900390625q0,0.94873046875-0.474365234375,2.044677734375t-1.652099609375,1.095947265625q-0.392578125,0-0.801513671875-0.1962890625t-0.768798828125-0.42529296875q0.130859375-0.75244140625,0.130859375-1.5048828125q0-0.392578125-0.03271484375-0.75244140625q-0.09814453125-1.14501953125-0.49072265625-2.011962890625t-1.128662109375-1.3740234375t-1.750244140625-0.376220703125q-1.34130859375,0.1962890625-2.011962890625,1.6357421875t-0.932373046875,3.418701171875t-0.3271484375,4.02392578125t-0.26171875,3.320556640625q1.53759765625,0.130859375,2.600830078125,0.130859375l2.666259765625,0q0.26171875,0,0.899658203125,0.03271484375t1.2431640625,0.130859375t1.07958984375,0.343505859375t0.474365234375,0.637939453125q0,0.3271484375-0.26171875,0.572509765625t-0.637939453125,0.343505859375t-0.78515625,0.130859375t-0.670654296875,0.03271484375q-1.14501953125,0-1.946533203125-0.09814453125t-1.53759765625-0.179931640625t-1.53759765625-0.081787109375t-1.881103515625,0.22900390625q-0.3271484375,3.63134765625-0.5234375,7.197265625t-0.1962890625,7.197265625q0,5.6923828125,0.35986328125,11.15576171875t1.30859375,11.09033203125q0.130859375,0.5234375,0.22900390625,1.194091796875t0.09814453125,1.292236328125q0,0.5888671875-0.35986328125,0.965087890625t-0.899658203125,0.539794921875t-1.1123046875,0.22900390625t-1.030517578125,0.0654296875q-1.86474609375,0-2.6171875-0.572509765625t-1.07958984375-2.306396484375q-0.81787109375-4.61279296875-1.046875-9.307373046875t-0.22900390625-9.470947265625q0-4.67822265625,0.343505859375-9.340087890625t0.866943359375-9.274658203125q-0.26171875,0-0.899658203125,0.03271484375t-1.27587890625,0t-1.1123046875-0.22900390625t-0.474365234375-0.68701171875z M89.474067382812,121.9189453125q0-1.86474609375,0.474365234375-3.843994140625t1.5048828125-3.56591796875t2.600830078125-2.58447265625t3.794921875-0.997802734375q1.66845703125,0,3.516845703125,0.572509765625t3.385986328125,1.6357421875t2.502685546875,2.600830078125t0.965087890625,3.43505859375q0,2.2900390625-0.834228515625,4.35107421875t-2.339111328125,3.680419921875t-3.516845703125,2.5517578125t-4.367431640625,0.932373046875q-1.93017578125,0-3.36962890625-0.703369140625t-2.404541015625-1.881103515625t-1.439453125-2.78076171875t-0.474365234375-3.40234375z M94.283149414062,121.853515625q0,0.5888671875,0.179931640625,1.73388671875t0.539794921875,2.240966796875t0.932373046875,1.8974609375t1.390380859375,0.736083984375q1.73388671875-0.1962890625,2.862548828125-1.128662109375t1.83203125-2.273681640625t0.9814453125-2.91162109375t0.278076171875-2.97705078125q0-1.79931640625-0.703369140625-3.009765625t-2.306396484375-1.962890625q0,0.0654296875,0.0654296875,0.0654296875t0.0654296875-0.0654296875l-0.81787109375-0.1962890625q-0.3271484375-0.130859375-0.801513671875-0.29443359375t-0.932373046875-0.7197265625q-1.27587890625,0.4580078125-1.979248046875,1.177734375t-1.063232421875,1.750244140625t-0.441650390625,2.469970703125t-0.081787109375,3.4677734375z M113.60682617187,121.9189453125q0-1.86474609375,0.474365234375-3.843994140625t1.5048828125-3.56591796875t2.600830078125-2.58447265625t3.794921875-0.997802734375q1.66845703125,0,3.516845703125,0.572509765625t3.385986328125,1.6357421875t2.502685546875,2.600830078125t0.965087890625,3.43505859375q0,2.2900390625-0.834228515625,4.35107421875t-2.339111328125,3.680419921875t-3.516845703125,2.5517578125t-4.367431640625,0.932373046875q-1.93017578125,0-3.36962890625-0.703369140625t-2.404541015625-1.881103515625t-1.439453125-2.78076171875t-0.474365234375-3.40234375z M118.41590820312,121.853515625q0,0.5888671875,0.179931640625,1.73388671875t0.539794921875,2.240966796875t0.932373046875,1.8974609375t1.390380859375,0.736083984375q1.73388671875-0.1962890625,2.862548828125-1.128662109375t1.83203125-2.273681640625t0.9814453125-2.91162109375t0.278076171875-2.97705078125q0-1.79931640625-0.703369140625-3.009765625t-2.306396484375-1.962890625q0,0.0654296875,0.0654296875,0.0654296875t0.0654296875-0.0654296875l-0.81787109375-0.1962890625q-0.3271484375-0.130859375-0.801513671875-0.29443359375t-0.932373046875-0.7197265625q-1.27587890625,0.4580078125-1.979248046875,1.177734375t-1.063232421875,1.750244140625t-0.441650390625,2.469970703125t-0.081787109375,3.4677734375z M138.39388183594,120.90478515625q0-2.5517578125,0.539794921875-4.629150390625t1.717529296875-3.516845703125t3.091552734375-2.240966796875t4.661865234375-0.801513671875q1.53759765625,0,3.140625,0.408935546875t2.748046875,1.521240234375q0-0.654296875,0.130859375-2.698974609375t0.3271484375-4.760009765625t0.408935546875-5.6923828125t0.376220703125-5.52880859375t0.29443359375-4.28564453125t0.1962890625-1.962890625q0.3271484375-0.94873046875,1.21044921875-1.128662109375t1.66845703125-0.179931640625q2.06103515625,0,2.535400390625,0.654296875t0.474365234375,2.6171875q0,7.16455078125-0.637939453125,14.263671875t-0.637939453125,14.263671875q0,4.61279296875,0.179931640625,9.274658203125t1.292236328125,9.176513671875l0.35986328125,0.3271484375l0.1962890625,0.5888671875l-0.49072265625,0.75244140625q-1.2431640625,0.78515625-2.87890625,0.78515625l-0.130859375,0q-1.66845703125,0-3.0751953125-0.78515625q-0.5234375-0.3271484375-0.866943359375-1.946533203125t-0.539794921875-3.56591796875t-0.29443359375-3.745849609375t-0.16357421875-2.5517578125q-1.14501953125,2.6171875-3.124267578125,4.498291015625t-4.989013671875,1.881103515625q-2.35546875,0-3.8603515625-1.01416015625t-2.339111328125-2.58447265625t-1.177734375-3.516845703125t-0.343505859375-3.876708984375z M142.35237792969,121.10107421875q0,0.75244140625,0.179931640625,2.224609375t0.572509765625,2.9443359375t1.095947265625,2.6171875t1.848388671875,1.14501953125q1.53759765625-0.75244140625,2.78076171875-2.502685546875t2.142822265625-3.8603515625t1.40673828125-4.22021484375t0.507080078125-3.647705078125q0-1.93017578125-1.40673828125-3.2060546875t-3.36962890625-1.27587890625q-0.5888671875,0-1.194091796875,0.22900390625t-1.128662109375,0.5234375q-1.21044921875,1.14501953125-1.881103515625,2.077392578125t-1.01416015625,1.93017578125t-0.441650390625,2.208251953125t-0.09814453125,2.8134765625z M169.36404296875,120.51220703125q0-3.009765625,0.703369140625-5.905029296875t1.194091796875-5.774169921875q0.130859375-0.75244140625,1.030517578125-0.932373046875t1.521240234375-0.179931640625q1.07958984375,0,1.73388671875,0.3271484375q0.26171875,0.130859375,0.49072265625,0.29443359375t0.22900390625,0.42529296875q0,2.8134765625-0.670654296875,5.49609375t-0.670654296875,5.6923828125q0,1.01416015625,0.147216796875,1.913818359375t0.278076171875,1.782958984375l0.1962890625,0.94873046875q0,0.26171875,0.03271484375,0.4580078125t0.09814453125,0.4580078125q0,0.5888671875-0.834228515625,0.801513671875t-1.455810546875,0.212646484375q-0.94873046875,0-1.750244140625-0.376220703125t-1.259521484375-1.292236328125l-0.4580078125-0.94873046875q-0.392578125-0.75244140625-0.392578125-1.684814453125t-0.16357421875-1.717529296875z M171.45779296875,100.81787109375l0-0.62158203125q0-1.53759765625,0.768798828125-2.748046875t2.306396484375-1.21044921875q0.1962890625,0,0.376220703125,0.03271484375t0.376220703125,0.03271484375q0.392578125,0.0654296875,1.030517578125,0.310791015625t0.637939453125,0.768798828125l0,0.0654296875q-0.130859375,0.26171875-0.16357421875,0.539794921875t-0.16357421875,0.474365234375l0.0654296875-0.0654296875q-0.392578125,1.01416015625-0.637939453125,1.6357421875t-0.539794921875,0.997802734375t-0.736083984375,0.539794921875t-1.259521484375,0.16357421875q-0.130859375,0-0.4580078125-0.03271484375t-0.703369140625-0.130859375t-0.637939453125-0.26171875t-0.26171875-0.49072265625z M183.64963378906,122.638671875q0-2.2900390625,0.507080078125-5.39794921875t1.717529296875-5.888671875t3.189697265625-4.727294921875t4.989013671875-1.946533203125q2.8134765625,0,4.22021484375,1.619384765625t1.40673828125,4.367431640625q0,1.79931640625-0.670654296875,3.942138671875t-1.913818359375,4.056640625t-2.9443359375,3.189697265625t-3.794921875,1.27587890625l-0.8505859375-0.0654296875q0,0.88330078125,0.26171875,2.371826171875t0.768798828125,2.960693359375t1.30859375,2.58447265625t1.946533203125,1.1123046875q1.66845703125,0,3.2060546875-1.34130859375t2.91162109375-2.97705078125t2.5517578125-2.97705078125t2.1591796875-1.34130859375q0.5234375,0,1.07958984375,0.16357421875t0.62158203125,0.916015625q0,0.4580078125-0.245361328125,0.75244140625t-0.441650390625,0.654296875q-1.01416015625,1.73388671875-2.208251953125,3.30419921875t-2.698974609375,2.84619140625t-3.287841796875,2.011962890625t-3.942138671875,0.736083984375q-2.8134765625,0-4.67822265625-0.997802734375t-3.009765625-2.6826171875t-1.652099609375-3.89306640625t-0.507080078125-4.629150390625z M189.50559082031,120.15234375l0.916015625,0.81787109375q0.654296875,0.5888671875,1.30859375,0.26171875t1.177734375-1.194091796875t0.965087890625-2.142822265625t0.78515625-2.6171875t0.507080078125-2.6171875t0.16357421875-2.12646484375l0-1.1123046875t-0.09814453125-1.177734375t-0.343505859375-0.932373046875t-0.768798828125-0.474365234375q-0.16357421875-0.03271484375-0.29443359375-0.03271484375q-1.1123046875,0-1.8974609375,1.40673828125q-0.8505859375,1.5703125-1.3740234375,3.811279296875t-0.75244140625,4.596435546875t-0.29443359375,3.533203125z"/><path fill="#" d=""/></svg>
